<?xml version="1.0" encoding="utf-8"?>
<!-- Generator: Adobe Illustrator 24.0.1, SVG Export Plug-In . SVG Version: 6.00 Build 0)  -->
<svg version="1.1" id="Layer_1" xmlns="http://www.w3.org/2000/svg" xmlns:xlink="http://www.w3.org/1999/xlink" x="0px" y="0px"
	 viewBox="0 0 566.9 252.3" style="enable-background:new 0 0 566.9 252.3;" xml:space="preserve">
<style type="text/css">
	.st0{fill:#1A1A1A;}
	.st1{fill:#FFFFFF;stroke:#1A1A1A;stroke-width:0.5;stroke-linecap:round;stroke-miterlimit:10;}
	.st2{fill:none;stroke:#000000;stroke-width:2;stroke-linecap:round;stroke-linejoin:round;stroke-miterlimit:10;}
	.st3{fill:none;stroke:#000000;stroke-width:0.75;stroke-linecap:round;stroke-linejoin:round;stroke-miterlimit:10;}
	.st4{fill:none;stroke:#000000;stroke-width:0.7;stroke-linecap:round;stroke-linejoin:round;stroke-miterlimit:10;}
	.st5{stroke:#000000;stroke-width:0.25;stroke-linecap:round;stroke-linejoin:round;stroke-miterlimit:10;}
	.st6{fill:none;stroke:#000000;stroke-width:1.2;stroke-linecap:round;stroke-linejoin:round;stroke-miterlimit:10;}
	.st7{fill:#221D53;}
	.st8{fill:#EF578F;}
	.st9{fill:#424FA2;}
	.st10{fill:#00BCE7;}
	.st11{fill:none;stroke:#000000;stroke-linecap:round;stroke-linejoin:round;stroke-miterlimit:10;}
	.st12{fill:#383839;}
	.st13{fill:#F1F2F2;}
	.st14{fill:#FFFFFF;}
	.st15{fill:#FFFFFF;stroke:#FFFFFF;stroke-width:0.25;stroke-linecap:round;stroke-linejoin:round;stroke-miterlimit:10;}
	.st16{clip-path:url(#SVGID_2_);}
	.st17{fill:none;stroke:#FFFFFF;stroke-width:0.5;stroke-miterlimit:10;}
</style>
<g>
	<g>
		<polygon class="st13" points="24.3,229 3.7,229 3.7,212.4 28.1,212.4 28.4,212.3 28.5,212 28.5,210.1 28.4,209.8 28.1,209.7 
			1.3,209.7 0.9,209.8 0.8,210.1 0.8,251.5 0.9,251.8 1.3,251.9 3.3,251.9 3.6,251.8 3.7,251.5 3.7,231.7 24.3,231.7 24.7,231.6 
			24.8,231.3 24.8,229.5 24.7,229.1 		"/>
		<path class="st13" d="M100.6,241.1l-0.6,0.2c-0.8,1.4-1.7,2.7-2.7,3.7c-1.1,1-2.2,1.9-3.5,2.5c-1.3,0.7-2.5,1.2-3.9,1.5
			c-1.3,0.3-2.6,0.5-3.9,0.5c-2.4,0-4.6-0.5-6.7-1.5c-2.1-1-3.9-2.4-5.4-4.1c-1.5-1.7-2.7-3.7-3.6-6c-0.9-2.3-1.3-4.7-1.3-7.1
			c0-2.2,0.4-4.5,1.1-6.7c0.7-2.2,1.8-4.2,3.3-5.9c1.4-1.7,3.2-3.2,5.3-4.2c2.1-1.1,4.5-1.6,7.2-1.6c1.3,0,2.5,0.1,3.8,0.4
			c1.2,0.3,2.4,0.7,3.6,1.3c1.2,0.6,2.2,1.4,3.2,2.4c1,1,1.9,2.2,2.6,3.6l0.6,0.2l1.7-0.8l0.2-0.3l0-0.3c-1.3-2.7-3.3-5-5.9-6.7
			c-2.7-1.7-5.9-2.6-9.7-2.6c-3.2,0-6,0.6-8.5,1.9c-2.5,1.2-4.6,2.9-6.3,4.9c-1.7,2-3,4.3-3.9,6.8c-0.9,2.5-1.3,5-1.3,7.6
			c0,2.7,0.5,5.3,1.5,7.9c1,2.6,2.3,4.9,4.1,7c1.7,2,3.8,3.7,6.2,5c2.4,1.3,5.1,1.9,8,1.9c1.6,0,3.2-0.2,4.9-0.6
			c1.7-0.4,3.3-1,4.8-1.9c1.5-0.8,2.9-1.9,4.1-3.1c1.2-1.2,2.2-2.7,2.9-4.3l0-0.4l-0.3-0.2L100.6,241.1z"/>
		<polygon class="st13" points="111.9,209.7 109.9,209.7 109.6,209.8 109.5,210.1 109.5,251.5 109.6,251.8 109.9,251.9 111.9,251.9 
			112.3,251.8 112.4,251.5 112.4,210.1 112.3,209.8 		"/>
		<polygon class="st13" points="157.1,209.7 155.1,209.7 154.8,209.8 154.7,210.1 154.7,247 125,209.8 124.7,209.7 123.1,209.7 
			122.8,209.8 122.7,210.1 122.7,251.5 122.8,251.8 123.1,251.9 125.2,251.9 125.5,251.8 125.6,251.5 125.6,215.2 154.8,251.8 
			155.2,251.9 157.1,251.9 157.5,251.8 157.6,251.5 157.6,210.1 157.5,209.8 		"/>
		<path class="st13" d="M201.2,231.2h-11.4l-0.3,0.1l-0.1,0.3v1.7l0.1,0.3l0.3,0.1h9.1l0,8.4c-2.2,2.5-4.4,4.3-6.7,5.5
			c-2.3,1.2-4.7,1.8-7.2,1.8c-2.4,0-4.6-0.5-6.7-1.5c-2.1-1-3.9-2.4-5.4-4.1c-1.5-1.7-2.8-3.7-3.6-5.9c-0.9-2.2-1.3-4.6-1.3-7.1
			c0-2.3,0.4-4.6,1.1-6.8c0.8-2.2,1.9-4.2,3.3-6c1.4-1.7,3.1-3.2,5.2-4.2c2-1.1,4.3-1.6,6.8-1.6c3.1,0,5.7,0.6,8.1,1.8
			c2.3,1.2,4.2,3.2,5.7,5.9l0.6,0.2l1.7-0.9l0.2-0.6c-0.7-1.4-1.5-2.6-2.5-3.7c-1-1.1-2.1-2.1-3.4-2.9c-1.3-0.8-2.8-1.5-4.6-1.9
			c-1.7-0.5-3.6-0.7-5.8-0.7c-2.8,0-5.4,0.6-7.8,1.8c-2.4,1.2-4.4,2.8-6.1,4.8c-1.7,2-3.1,4.3-4,6.8c-1,2.6-1.4,5.3-1.4,8
			c0,2.6,0.5,5.2,1.5,7.8c1,2.6,2.4,4.8,4.1,6.9c1.7,2,3.8,3.7,6.3,4.9c2.5,1.3,5.1,1.9,8,1.9c5.2,0,9.9-2.2,14-6.4v5.7l0.1,0.3
			l0.3,0.1h1.9l0.3-0.1l0.1-0.3v-19.9l-0.1-0.3L201.2,231.2z"/>
		<polygon class="st13" points="265.6,209.7 263.7,209.7 263.4,209.9 245.5,240.1 227.6,209.9 227.2,209.7 225.4,209.7 225.1,209.8 
			224.9,210.1 224.9,251.5 225.1,251.8 225.4,251.9 227.4,251.9 227.7,251.8 227.9,251.5 227.9,215.7 244.4,243.7 244.8,243.9 
			246.2,243.9 246.6,243.7 263.1,215.7 263.1,251.5 263.3,251.8 263.6,251.9 265.6,251.9 265.9,251.8 266.1,251.5 266.1,210.1 
			265.9,209.8 		"/>
		<path class="st13" d="M307.6,216.2c-1.7-2-3.8-3.7-6.2-4.9c-2.4-1.3-5.1-1.9-8.1-1.9c-2.8,0-5.5,0.6-7.9,1.8
			c-2.4,1.2-4.5,2.8-6.3,4.7c-1.8,2-3.2,4.3-4.2,6.8c-1,2.6-1.5,5.3-1.5,8.1c0,2.7,0.5,5.3,1.4,7.9c1,2.6,2.3,4.9,4.1,6.8
			c1.7,2,3.8,3.6,6.3,4.8c2.4,1.2,5.1,1.9,8.1,1.9c2.8,0,5.4-0.6,7.8-1.8c2.4-1.2,4.5-2.7,6.3-4.7c1.8-2,3.2-4.2,4.2-6.8
			c1-2.6,1.5-5.3,1.5-8.2c0-2.6-0.5-5.2-1.4-7.8C310.6,220.5,309.3,218.2,307.6,216.2z M293.3,249.4c-2.5,0-4.7-0.5-6.8-1.5
			c-2.1-1-3.8-2.4-5.3-4.1c-1.5-1.7-2.7-3.7-3.5-6c-0.8-2.2-1.3-4.6-1.3-7c0-2.3,0.4-4.6,1.2-6.8c0.8-2.2,2-4.2,3.4-6
			c1.5-1.7,3.2-3.2,5.3-4.2c2.1-1.1,4.3-1.6,6.9-1.6c2.4,0,4.6,0.5,6.7,1.5c2.1,1,3.8,2.4,5.3,4.1c1.5,1.7,2.7,3.7,3.5,6
			c0.9,2.2,1.3,4.6,1.3,7c0,2.3-0.4,4.5-1.2,6.8c-0.8,2.2-1.9,4.2-3.4,6c-1.5,1.7-3.2,3.2-5.3,4.2
			C298.1,248.9,295.8,249.4,293.3,249.4z"/>
		<path class="st13" d="M354.4,209.7h-2l-0.3,0.1l-0.1,0.3v20.8c0,2.3-0.2,4.6-0.7,6.8c-0.5,2.2-1.2,4.2-2.3,5.9
			c-1.1,1.7-2.6,3.1-4.5,4.2c-1.9,1.1-4.3,1.6-7.2,1.6c-2.9,0-5.2-0.5-7-1.6c-1.9-1.1-3.4-2.4-4.5-4.1c-1.1-1.7-1.9-3.7-2.4-5.9
			c-0.5-2.2-0.7-4.6-0.7-6.9v-20.8l-0.1-0.3l-0.3-0.1h-2l-0.3,0.1l-0.1,0.3v20.8c0,2.6,0.3,5.2,0.9,7.8c0.6,2.6,1.5,4.8,2.9,6.9
			c1.4,2,3.2,3.7,5.4,4.9c2.3,1.3,5.1,1.9,8.4,1.9c3.2,0,6-0.6,8.2-1.8c2.2-1.2,4-2.8,5.4-4.7c1.4-2,2.4-4.3,3-6.8
			c0.6-2.6,0.9-5.2,0.9-8v-20.8l-0.1-0.3L354.4,209.7z"/>
		<polygon class="st13" points="398.9,209.7 396.9,209.7 396.6,209.8 396.4,210.1 396.4,246.4 367.3,209.8 366.9,209.7 364.9,209.7 
			364.6,209.8 364.5,210.1 364.5,251.5 364.6,251.8 364.9,251.9 367,251.9 367.3,251.8 367.4,251.5 367.4,214.6 397.1,251.8 
			397.4,251.9 398.9,251.9 399.2,251.8 399.4,251.5 399.4,210.1 399.2,209.8 		"/>
		<polygon class="st13" points="439,212.3 439.1,212 439.1,210.1 439,209.8 438.7,209.7 405.6,209.7 405.3,209.8 405.1,210.1 
			405.1,212 405.3,212.3 405.6,212.4 420.7,212.4 420.7,251.5 420.8,251.8 421.1,251.9 423.1,251.9 423.5,251.8 423.6,251.5 
			423.6,212.4 438.7,212.4 		"/>
		<polygon class="st13" points="482.6,209.7 480.6,209.7 480.3,209.8 480.1,210.1 480.1,251.5 480.3,251.8 480.6,251.9 482.6,251.9 
			482.9,251.8 483.1,251.5 483.1,210.1 482.9,209.8 		"/>
		<polygon class="st13" points="527.8,209.7 525.8,209.7 525.5,209.8 525.3,210.1 525.3,247 495.7,209.8 495.3,209.7 493.8,209.7 
			493.5,209.8 493.4,210.1 493.4,251.5 493.5,251.8 493.8,251.9 495.9,251.9 496.2,251.8 496.3,251.5 496.3,215.2 525.5,251.8 
			525.8,251.9 527.8,251.9 528.1,251.8 528.3,251.5 528.3,210.1 528.1,209.8 		"/>
		<path class="st13" d="M565.8,236.4c-0.7-1.3-1.8-2.4-3.1-3.3c-1.3-0.9-2.9-1.6-4.8-2.1c-1.8-0.5-3.9-1.1-6.2-1.5
			c-2.2-0.5-4.1-0.9-5.7-1.4c-1.6-0.4-2.8-1-3.8-1.6c-1-0.6-1.6-1.4-2.1-2.3c-0.4-0.9-0.7-2-0.7-3.3c0-2.7,0.9-4.8,2.8-6.4
			c1.8-1.6,4.9-2.4,9.3-2.4c2.4,0,4.5,0.3,6.3,1c1.7,0.7,3.4,1.8,4.8,3.4l0.4,0.1l0.3-0.2l1.1-1.5l0-0.6c-1.7-1.8-3.6-3-5.7-3.8
			c-2.1-0.8-4.5-1.2-7.2-1.2c-2.2,0-4.2,0.3-6.1,0.8c-1.8,0.5-3.4,1.3-4.7,2.3c-1.3,1-2.3,2.2-3.1,3.7c-0.7,1.5-1.1,3.2-1.1,5.1
			c0,1.8,0.3,3.3,1,4.5c0.6,1.2,1.6,2.2,2.8,3c1.2,0.8,2.7,1.5,4.5,2c1.7,0.5,3.7,1,6,1.5c2.3,0.5,4.3,1,5.9,1.5
			c1.7,0.5,3,1.1,4.1,1.8c1.1,0.7,1.8,1.5,2.3,2.5c0.5,1,0.8,2.1,0.8,3.6c0,2.8-1,4.8-3.1,6.1c-2.1,1.4-5.1,2.1-8.9,2.1
			c-3.1,0-5.9-0.5-8.3-1.5c-2.4-1-4.6-2.4-6.5-4.4l-0.3-0.1l-0.3,0.2l-1.2,1.5l0,0.6c2.3,2.2,4.8,3.8,7.5,4.8
			c2.7,1.1,5.7,1.6,9.1,1.6c2.2,0,4.3-0.2,6.1-0.7c1.8-0.5,3.4-1.1,4.8-2.1c1.3-0.9,2.4-2.1,3.1-3.5c0.7-1.4,1.1-3,1.1-4.8
			C566.9,239.3,566.6,237.7,565.8,236.4z"/>
		<polygon class="st13" points="46.5,209.7 44.8,209.7 44.4,209.9 26.5,251.3 26.5,251.7 26.9,251.9 29.1,251.9 29.5,251.7 
			45.6,213.8 61.7,251.7 62.1,251.9 64.3,251.9 64.7,251.7 64.7,251.3 46.9,209.9 		"/>
		<polygon class="st13" points="456.1,209.8 454.4,209.8 454,210.1 436.1,251.5 436.2,251.9 436.5,252.1 438.8,252.1 439.2,251.8 
			455.3,213.9 471.4,251.8 471.8,252.1 473.9,252.1 474.3,251.9 474.3,251.5 456.6,210.1 		"/>
	</g>
	<g>
		<path class="st13" d="M564.1,145.8h-61.5c-3.9,0-7.6-2-10.5-5.7l-0.9,1.1l0.9-1l-59.9-81.4l0,0c-3.4-4.4-7.8-6.7-12.2-6.7
			c-4.7,0-9.3,2.5-12.8,7.4l0.9,1l-0.8-1.2l-17,18.3l0.8,1.2l-0.8-1.2c-2.6,2.6-4.5,3.7-6.4,3.7c-1.5,0-3.1-0.6-5.1-2
			c-2-1.4-4.4-3.4-7.3-6.1l-0.7,1.2l0.8-1.2L303,6.8L302.2,8l0.8-1.2C298.5,2.2,292.5,0,286.7,0c-6,0-11.9,2.3-16.1,6.8l0.8,1.2
			l-0.7-1.2l-64.7,60.8l0,0c-5.1,4.9-8.8,6.7-11.7,6.7c-2.3,0-4.3-1-6.4-2.8c-2.1-1.8-4.4-4.3-7-7l-0.8,1.2l0.8-1.1l-11.1-12
			l-0.8,1.1l0.8-1.1c-2.7-3.1-4.9-5.3-7-6.8c-2.1-1.5-4-2.2-5.9-2.2c-2.1,0-4,0.9-5.9,2.4c-1.9,1.5-3.9,3.5-6.1,6l-0.1,0.1L73.4,140
			l0,0c-2.9,3.7-6.6,5.8-10.5,5.8H1.4c-0.7,0-1.2,0.7-1.2,1.5c0,0.8,0.6,1.5,1.2,1.5l61.5,0c4.6,0,9-2.4,12.3-6.7l-0.9-1.1l0.9,1.1
			L146.6,54l-0.9-1.1l0.8,1.2c2.2-2.4,4.1-4.4,5.8-5.7c1.7-1.3,3.1-1.9,4.6-1.9c1.4,0,2.8,0.5,4.7,1.8c1.8,1.3,4,3.4,6.5,6.4l0,0
			l11.1,12l0,0c2.6,2.7,4.8,5.2,7.2,7.2c2.4,2,4.9,3.3,7.8,3.3c3.8,0,7.9-2.2,13.2-7.3l-0.8-1.2l0.7,1.2l64.7-60.8l0.1-0.1
			c3.7-4,9-6.1,14.5-6.1c5.4,0,10.8,2,14.7,6.1l0,0l68.7,66.4l0,0c3,2.7,5.4,4.8,7.6,6.3c2.2,1.5,4.2,2.4,6.2,2.4
			c2.7,0,5.2-1.5,7.9-4.4l0,0l17-18.3l0.1-0.1c3.1-4.3,7-6.4,11-6.4c3.7,0,7.5,1.9,10.5,5.7l0.9-1.1l-0.9,1l59.9,81.4l0,0
			c3.3,4.3,7.7,6.7,12.2,6.7h61.5c0.7,0,1.2-0.7,1.2-1.5C565.4,146.5,564.8,145.8,564.1,145.8L564.1,145.8z"/>
		<path class="st13" d="M564.1,154.7h-61.5c-4,0-7.8-1.5-10.6-4.2l0,0l-66.9-63.3l0,0c-3.3-3-5.9-4.8-8.7-4.8c-3,0-5.7,2-9,5.3l0,0
			l-13.5,14.5l0.8,1.2l-0.8-1.2c-3,3.1-7.1,4.7-11.1,4.7c-4,0-8.1-1.6-11.1-4.7l-0.1-0.1l-72.3-60.7l-0.7,1.3l0.8-1.2
			c-3.5-3.6-8.1-5.3-12.7-5.3c-4.6,0-9.1,1.8-12.7,5.3l0.8,1.2l-0.7-1.3L206,98l-0.1,0.1c-3.3,3.3-7.4,5.3-11.5,5.3
			c-3.7,0-7.4-1.6-10.7-5.2l-0.1-0.1l-17.4-17.7c-3.4-3.5-7.1-5.3-10.8-5.3c-3.5,0-7.1,1.7-10.5,4.8l0,0l-71.4,70.5l0.8,1.2
			l-0.7-1.2c-2.9,2.7-6.7,4.2-10.7,4.2H1.4c-0.7,0-1.2,0.7-1.2,1.5c0,0.8,0.6,1.5,1.2,1.5l61.5,0c4.5,0,8.8-1.7,12.1-4.8l0,0
			l71.4-70.5l-0.8-1.2l0.7,1.2c3.1-2.9,6.1-4.2,9-4.2c3.1,0,6.2,1.5,9.3,4.7l17.4,17.7l0.8-1.2l-0.8,1.1c3.7,4.2,8.1,6,12.3,6
			c4.8,0,9.4-2.3,13.1-6l-0.8-1.2l0.7,1.3L275.6,44l0.1-0.1c3-3.1,7.1-4.7,11.1-4.7c4,0,8.1,1.6,11.1,4.7L298,44l72.3,60.7l0.7-1.3
			l-0.8,1.2c3.5,3.6,8.1,5.3,12.7,5.3c4.6,0,9.1-1.8,12.7-5.3l0,0L409,90.1l-0.8-1.2l0.8,1.2c3.2-3.3,5.4-4.7,7.4-4.7
			c1.9,0,4.1,1.2,7.2,4.2l0,0l66.9,63.3l0,0c3.3,3.1,7.6,4.8,12.1,4.8h61.5c0.7,0,1.2-0.7,1.2-1.5
			C565.4,155.4,564.8,154.7,564.1,154.7L564.1,154.7z"/>
		<path class="st13" d="M564.1,163.5h-61.5c-4,0-7.9-1-10.8-2.8l-63.4-38.5l0,0c-5.3-3.1-9.2-4.7-12.9-4.7c-4,0-7.5,1.9-11.5,5.1
			l0.7,1.3l-0.6-1.3l-9.9,6.6c-3,2-7.2,3.1-11.3,3.1c-4.1,0-8.3-1.1-11.3-3.1l0,0l-75.8-47.3l-0.6,1.4l0.6-1.3
			c-3.4-2.2-6.1-3.4-8.9-3.4c-2.8,0-5.6,1.2-8.9,3.4l0.6,1.3l-0.6-1.4l-71.8,44.7l-0.1,0.1c-3.5,2.6-7.2,3.7-10.9,3.7
			c-4.2,0-8.3-1.5-11.7-3.7l-13.9-9.2c-3.5-2.3-8-3.4-12.5-3.4c-4.2,0-8.5,1-11.9,3.1l-71.4,43.7c-2.9,1.8-6.8,2.8-10.9,2.8H1.4
			c-0.7,0-1.2,0.7-1.2,1.5c0,0.8,0.6,1.5,1.2,1.5l61.5,0c4.4,0,8.6-1.1,11.9-3.1l71.4-43.7c3-1.8,6.9-2.8,10.9-2.8
			c4.1,0,8.3,1.1,11.3,3.1l13.9,9.2c3.7,2.5,8.2,4.1,12.9,4.1c4,0,8.2-1.2,12.1-4.1l-0.6-1.3l0.6,1.4L279,84.6l0,0
			c3.2-2.1,5.5-3.1,7.8-3.1c2.2,0,4.6,1,7.8,3.1l0,0l75.8,47.3l0.6-1.4l-0.6,1.3c3.5,2.3,8,3.4,12.5,3.4c4.5,0,8.9-1.1,12.5-3.4
			l9.9-6.6l0.1-0.1c3.9-3.1,6.9-4.7,10.2-4.7c3.1,0,6.7,1.4,11.8,4.4l0,0l63.4,38.5c3.3,2,7.5,3.1,11.9,3.1h61.5
			c0.7,0,1.2-0.7,1.2-1.5C565.4,164.2,564.8,163.5,564.1,163.5L564.1,163.5z"/>
		<path class="st13" d="M1.4,175.3h61.5c4.3,0,8.5-0.8,11.8-2.3l63.4-29.1c3-1.4,7-2.1,10.9-2.1c4.2,0,8.4,0.8,11.4,2.4l9.9,5
			c3.5,1.7,7.9,2.6,12.3,2.6c4.4,0,8.9-0.8,12.3-2.6l-0.5-1.4l0.4,1.4l75.8-31.9l0.1,0c3.1-1.6,6.4-2.4,9.7-2.4
			c3.3,0,6.5,0.8,9.7,2.4l0.1,0l68.2,29.9l0.4-1.4l-0.5,1.4c3.5,1.7,7.9,2.6,12.3,2.6c4.4,0,8.9-0.8,12.3-2.6l13.9-7
			c3.1-1.5,7.2-2.4,11.4-2.4c4,0,7.9,0.7,11,2.1l71.4,33.1c3.3,1.5,7.5,2.3,11.8,2.3h61.5c0.7,0,1.2-0.7,1.2-1.5
			c0-0.8-0.6-1.5-1.2-1.5l-61.5,0c-4.1,0-8.1-0.8-11-2.1L420.3,137c-3.4-1.6-7.6-2.3-11.8-2.3c-4.4,0-8.9,0.8-12.4,2.6l-13.9,7
			c-3.1,1.5-7.2,2.4-11.4,2.4c-4.2,0-8.4-0.8-11.4-2.4l-0.1,0L291,114.3l-0.4,1.4l0.5-1.4c-3.4-1.7-7-2.6-10.6-2.6
			c-3.6,0-7.2,0.9-10.6,2.6l0.5,1.4l-0.4-1.4l-75.8,31.9l-0.1,0c-3.1,1.5-7.2,2.4-11.4,2.4c-4.2,0-8.4-0.8-11.4-2.4l-9.9-5
			c-3.5-1.7-7.9-2.6-12.4-2.6c-4.2,0-8.4,0.7-11.8,2.3l-63.4,29.1c-2.9,1.3-6.8,2.1-10.9,2.1H1.4c-0.7,0-1.2,0.7-1.2,1.5
			C0.2,174.6,0.7,175.3,1.4,175.3L1.4,175.3z"/>
		<path class="st13" d="M564.1,180.6h-61.5c-4.1,0-8.1-0.4-11.1-1.2l-63.4-16.6c-3.3-0.9-7.5-1.3-11.6-1.3c-4.4,0-8.8,0.5-12.2,1.4
			l-9.9,2.8c-3.1,0.9-7.4,1.4-11.6,1.4c-4.2,0-8.5-0.5-11.6-1.4L299,145.2c-3.4-1-7.8-1.4-12.2-1.4c-4.4,0-8.7,0.5-12.2,1.4
			l-68.2,19.5c-3.1,0.9-7.4,1.4-11.6,1.4c-4.2,0-8.5-0.5-11.6-1.4l-13.9-4c-3.4-1-7.8-1.4-12.2-1.4c-4.2,0-8.3,0.4-11.7,1.3
			L74,179.4c-3,0.8-7,1.2-11.1,1.2H1.4c-0.7,0-1.2,0.7-1.2,1.5c0,0.8,0.6,1.5,1.2,1.5l61.5,0c4.3,0,8.4-0.5,11.7-1.3l71.4-18.8
			c3.1-0.8,7.1-1.2,11.1-1.2c4.2,0,8.5,0.5,11.6,1.4l13.9,4c3.4,1,7.8,1.4,12.2,1.4c4.4,0,8.7-0.5,12.2-1.4l68.2-19.5
			c3.1-0.9,7.4-1.4,11.6-1.4c4.2,0,8.5,0.5,11.6,1.4l72.3,20.6c3.4,1,7.8,1.4,12.2,1.4c4.4,0,8.7-0.5,12.2-1.4l9.9-2.8
			c3.1-0.9,7.4-1.4,11.6-1.4c4,0,8,0.4,11.1,1.2l63.4,16.6c3.2,0.8,7.3,1.3,11.6,1.3h61.5c0.7,0,1.2-0.7,1.2-1.5
			C565.4,181.3,564.8,180.6,564.1,180.6L564.1,180.6z"/>
		<path class="st13" d="M490.5,140.1h73.8c0.7,0,1.2-0.7,1.2-1.5c0-0.8-0.6-1.5-1.2-1.5h-73.8c-0.7,0-1.2,0.7-1.2,1.5
			C489.3,139.4,489.9,140.1,490.5,140.1"/>
		<path class="st13" d="M1.2,140.1H75c0.7,0,1.2-0.7,1.2-1.5c0-0.8-0.6-1.5-1.2-1.5H1.2c-0.7,0-1.2,0.7-1.2,1.5
			C0,139.4,0.6,140.1,1.2,140.1"/>
		<path class="st13" d="M564.1,181.5h-61.5c-4.2,0-8.2-0.2-11.2-0.5l-63.4-6.8c-3.3-0.4-7.4-0.5-11.5-0.5c-4.3,0-8.7,0.2-12,0.6
			l-9.9,1.2c-3.2,0.4-7.5,0.6-11.8,0.6c-4.3,0-8.5-0.2-11.8-0.6l-72.3-8.5c-3.3-0.4-7.7-0.6-12-0.6c-4.3,0-8.7,0.2-12,0.6l-68.2,8
			c-3.2,0.4-7.5,0.6-11.8,0.6c-4.3,0-8.5-0.2-11.8-0.6l-13.9-1.6c-3.3-0.4-7.7-0.6-12-0.6c-4.1,0-8.2,0.2-11.5,0.5L74.1,181
			c-3.1,0.3-7.1,0.5-11.3,0.5H1.4c-0.7,0-1.2,0.7-1.2,1.5c0,0.8,0.6,1.5,1.2,1.5l61.5,0c4.3,0,8.4-0.2,11.5-0.5l71.4-7.7
			c3.2-0.3,7.2-0.5,11.3-0.5c4.3,0,8.6,0.2,11.8,0.6l13.9,1.6c3.3,0.4,7.7,0.6,12,0.6c4.3,0,8.7-0.2,12-0.6l68.2-8
			c3.2-0.4,7.5-0.6,11.8-0.6c4.3,0,8.5,0.2,11.8,0.6l72.3,8.5c3.3,0.4,7.7,0.6,12,0.6c4.3,0,8.7-0.2,12-0.6l9.9-1.2
			c3.2-0.4,7.5-0.6,11.8-0.6c4,0,8.1,0.2,11.2,0.5l63.4,6.8c3.2,0.3,7.2,0.5,11.5,0.5h61.5c0.7,0,1.2-0.7,1.2-1.5
			C565.4,182.2,564.8,181.5,564.1,181.5L564.1,181.5z"/>
	</g>
</g>
</svg>
