<?xml version="1.0" encoding="utf-8"?>
<!-- Generator: Adobe Illustrator 24.0.1, SVG Export Plug-In . SVG Version: 6.00 Build 0)  -->
<svg version="1.1" id="Layer_1" xmlns="http://www.w3.org/2000/svg" xmlns:xlink="http://www.w3.org/1999/xlink" x="0px" y="0px"
	 viewBox="0 0 31.6 31.6" style="enable-background:new 0 0 31.6 31.6;" xml:space="preserve">
<style type="text/css">
	.st0{fill:#FFDE17;}
	.st1{fill:#010101;}
	.st2{fill:#FFFFFF;}
	.st3{fill:none;stroke:#FFFFFF;stroke-miterlimit:10;}
	.st4{fill:#F26522;}
	.st5{fill:none;stroke:#030303;stroke-miterlimit:10;}
	.st6{fill:#030303;}
	.st7{fill:none;stroke:#000000;stroke-width:0.75;stroke-miterlimit:10;}
	.st8{fill:#A7A9AC;}
	.st9{fill:none;stroke:#808285;stroke-miterlimit:10;}
	.st10{fill:none;stroke:#FFFFFF;stroke-width:0.75;stroke-miterlimit:10;}
	.st11{stroke:#000000;stroke-width:0.25;stroke-linecap:round;stroke-linejoin:round;stroke-miterlimit:10;}
	.st12{fill:none;stroke:#FFFFFF;stroke-linecap:round;stroke-miterlimit:10;}
	.st13{fill:none;stroke:#F26522;stroke-miterlimit:10;}
	.st14{fill:none;stroke:#E6E7E8;stroke-miterlimit:10;}
	.st15{clip-path:url(#SVGID_4_);}
	.st16{clip-path:url(#SVGID_10_);}
	.st17{clip-path:url(#SVGID_14_);fill:#F26522;}
	.st18{fill:#222223;}
</style>
<g>
	<circle class="st10" cx="15.8" cy="15.8" r="15.4"/>
	<g id="XMLID_142_">
		<path id="XMLID_147_" class="st2" d="M15.8,9.9c1.9,0,2.2,0,2.9,0c0.7,0,1.1,0.2,1.4,0.3c0.3,0.1,0.6,0.3,0.8,0.5
			c0.3,0.3,0.4,0.5,0.5,0.8c0.1,0.3,0.2,0.6,0.3,1.4c0,0.8,0,1,0,2.9c0,1.9,0,2.2,0,2.9c0,0.7-0.2,1.1-0.3,1.4
			c-0.1,0.3-0.3,0.6-0.5,0.8c-0.3,0.3-0.5,0.4-0.8,0.5c-0.3,0.1-0.6,0.2-1.4,0.3c-0.8,0-1,0-2.9,0c-1.9,0-2.2,0-2.9,0
			c-0.7,0-1.1-0.2-1.4-0.3c-0.3-0.1-0.6-0.3-0.8-0.5c-0.3-0.3-0.4-0.5-0.5-0.8c-0.1-0.3-0.2-0.6-0.3-1.4c0-0.8,0-1,0-2.9
			c0-1.9,0-2.2,0-2.9c0-0.7,0.2-1.1,0.3-1.4c0.1-0.3,0.3-0.6,0.5-0.8c0.3-0.3,0.5-0.4,0.8-0.5c0.3-0.1,0.6-0.2,1.4-0.3
			C13.6,9.9,13.9,9.9,15.8,9.9 M15.8,8.5c-2,0-2.2,0-3,0c-0.8,0-1.3,0.2-1.8,0.3c-0.5,0.2-0.9,0.4-1.3,0.8c-0.4,0.4-0.7,0.8-0.8,1.3
			c-0.2,0.5-0.3,1-0.3,1.8c0,0.8,0,1,0,3s0,2.2,0,3c0,0.8,0.2,1.3,0.3,1.8c0.2,0.5,0.4,0.9,0.8,1.3c0.4,0.4,0.8,0.7,1.3,0.8
			c0.5,0.2,1,0.3,1.8,0.3c0.8,0,1,0,3,0c2,0,2.2,0,3,0c0.8,0,1.3-0.2,1.8-0.3c0.5-0.2,0.9-0.4,1.3-0.8c0.4-0.4,0.7-0.8,0.8-1.3
			c0.2-0.5,0.3-1,0.3-1.8c0-0.8,0-1,0-3s0-2.2,0-3c0-0.8-0.2-1.3-0.3-1.8c-0.2-0.5-0.4-0.9-0.8-1.3c-0.4-0.4-0.8-0.7-1.3-0.8
			c-0.5-0.2-1-0.3-1.8-0.3C18,8.5,17.8,8.5,15.8,8.5"/>
		<path id="XMLID_144_" class="st2" d="M15.8,12.1c-2.1,0-3.7,1.7-3.7,3.7s1.7,3.7,3.7,3.7c2.1,0,3.7-1.7,3.7-3.7
			S17.9,12.1,15.8,12.1 M15.8,18.2c-1.3,0-2.4-1.1-2.4-2.4c0-1.3,1.1-2.4,2.4-2.4c1.3,0,2.4,1.1,2.4,2.4
			C18.2,17.2,17.2,18.2,15.8,18.2"/>
		<path id="XMLID_143_" class="st2" d="M20.6,11.9c0,0.5-0.4,0.9-0.9,0.9c-0.5,0-0.9-0.4-0.9-0.9c0-0.5,0.4-0.9,0.9-0.9
			C20.2,11.1,20.6,11.4,20.6,11.9"/>
	</g>
</g>
</svg>
