<?xml version="1.0" encoding="utf-8"?>
<!-- Generator: Adobe Illustrator 24.0.1, SVG Export Plug-In . SVG Version: 6.00 Build 0)  -->
<svg version="1.1" id="Layer_1" xmlns="http://www.w3.org/2000/svg" xmlns:xlink="http://www.w3.org/1999/xlink" x="0px" y="0px"
	 viewBox="0 0 31.6 31.6" style="enable-background:new 0 0 31.6 31.6;" xml:space="preserve">
<style type="text/css">
	.st0{fill:#FFDE17;}
	.st1{fill:#010101;}
	.st2{fill:#FFFFFF;}
	.st3{fill:none;stroke:#FFFFFF;stroke-miterlimit:10;}
	.st4{fill:#F26522;}
	.st5{fill:none;stroke:#030303;stroke-miterlimit:10;}
	.st6{fill:#030303;}
	.st7{fill:none;stroke:#000000;stroke-width:0.75;stroke-miterlimit:10;}
	.st8{fill:#A7A9AC;}
	.st9{fill:none;stroke:#808285;stroke-miterlimit:10;}
	.st10{fill:none;stroke:#FFFFFF;stroke-width:0.75;stroke-miterlimit:10;}
	.st11{stroke:#000000;stroke-width:0.25;stroke-linecap:round;stroke-linejoin:round;stroke-miterlimit:10;}
	.st12{fill:none;stroke:#FFFFFF;stroke-linecap:round;stroke-miterlimit:10;}
	.st13{fill:none;stroke:#F26522;stroke-miterlimit:10;}
	.st14{fill:none;stroke:#E6E7E8;stroke-miterlimit:10;}
	.st15{clip-path:url(#SVGID_4_);}
	.st16{clip-path:url(#SVGID_10_);}
	.st17{clip-path:url(#SVGID_14_);fill:#F26522;}
	.st18{fill:#222223;}
</style>
<g>
	<g>
		<circle class="st10" cx="15.8" cy="15.8" r="15.4"/>
	</g>
	<path class="st2" d="M20.4,10.1h-9.1c-1.8,0-3.3,1.5-3.3,3.3v4.7c0,1.8,1.5,3.3,3.3,3.3h9.1c1.8,0,3.3-1.5,3.3-3.3v-4.7
		C23.7,11.6,22.2,10.1,20.4,10.1z M18.4,16L14,18.1c-0.1,0.1-0.3,0-0.3-0.2v-4.3c0-0.1,0.1-0.2,0.3-0.2l4.4,2.2
		C18.6,15.8,18.6,16,18.4,16z"/>
</g>
</svg>
