<?xml version="1.0" encoding="utf-8"?>
<!-- Generator: Adobe Illustrator 24.0.1, SVG Export Plug-In . SVG Version: 6.00 Build 0)  -->
<svg version="1.1" id="Layer_1" xmlns="http://www.w3.org/2000/svg" xmlns:xlink="http://www.w3.org/1999/xlink" x="0px" y="0px"
	 viewBox="0 0 31.6 31.6" style="enable-background:new 0 0 31.6 31.6;" xml:space="preserve">
<style type="text/css">
	.st0{fill:#FFDE17;}
	.st1{fill:#010101;}
	.st2{fill:#FFFFFF;}
	.st3{fill:none;stroke:#FFFFFF;stroke-miterlimit:10;}
	.st4{fill:#F26522;}
	.st5{fill:none;stroke:#030303;stroke-miterlimit:10;}
	.st6{fill:#030303;}
	.st7{fill:none;stroke:#000000;stroke-width:0.75;stroke-miterlimit:10;}
	.st8{fill:#A7A9AC;}
	.st9{fill:none;stroke:#808285;stroke-miterlimit:10;}
	.st10{fill:none;stroke:#FFFFFF;stroke-width:0.75;stroke-miterlimit:10;}
	.st11{stroke:#000000;stroke-width:0.25;stroke-linecap:round;stroke-linejoin:round;stroke-miterlimit:10;}
	.st12{fill:none;stroke:#FFFFFF;stroke-linecap:round;stroke-miterlimit:10;}
	.st13{fill:none;stroke:#F26522;stroke-miterlimit:10;}
	.st14{fill:none;stroke:#E6E7E8;stroke-miterlimit:10;}
	.st15{clip-path:url(#SVGID_4_);}
	.st16{clip-path:url(#SVGID_10_);}
	.st17{clip-path:url(#SVGID_14_);fill:#F26522;}
	.st18{fill:#222223;}
</style>
<g>
	<circle class="st10" cx="15.8" cy="15.8" r="15.4"/>
	<g id="XMLID_151_">
		<path id="XMLID_152_" class="st2" d="M15.8,8.3c-4.1,0-7.5,3.4-7.5,7.5c0,4.1,3.4,7.5,7.5,7.5c4.1,0,7.5-3.4,7.5-7.5
			C23.3,11.7,20,8.3,15.8,8.3z M19.3,19.2c-0.2,0.2-0.4,0.3-0.6,0.2c-1.8-1.1-4-1.3-6.6-0.7c-0.3,0.1-0.5-0.1-0.6-0.3
			c-0.1-0.3,0.1-0.5,0.3-0.6c2.9-0.6,5.3-0.4,7.3,0.8C19.3,18.6,19.4,18.9,19.3,19.2z M20.2,17.1c-0.2,0.3-0.5,0.4-0.8,0.2
			c-2-1.2-5.1-1.6-7.5-0.9c-0.3,0.1-0.6-0.1-0.7-0.4c-0.1-0.3,0.1-0.6,0.4-0.7c2.7-0.8,6.1-0.4,8.5,1C20.2,16.5,20.4,16.8,20.2,17.1
			z M20.2,15c-2.4-1.4-6.4-1.6-8.7-0.9c-0.4,0.1-0.8-0.1-0.9-0.5c-0.1-0.4,0.1-0.8,0.5-0.9c2.7-0.8,7.1-0.6,9.8,1
			c0.3,0.2,0.5,0.6,0.3,1C21,15.1,20.6,15.2,20.2,15z"/>
	</g>
</g>
</svg>
