<?xml version="1.0" encoding="utf-8"?>
<!-- Generator: Adobe Illustrator 24.0.1, SVG Export Plug-In . SVG Version: 6.00 Build 0)  -->
<svg version="1.1" id="Layer_1" xmlns="http://www.w3.org/2000/svg" xmlns:xlink="http://www.w3.org/1999/xlink" x="0px" y="0px"
	 viewBox="0 0 8 4.9" style="enable-background:new 0 0 8 4.9;" xml:space="preserve">
<style type="text/css">
	.st0{fill:#FFFFFF;}
</style>
<g>
	<path class="st0" d="M8,0.8c-0.1-0.1-0.2-0.1-0.2,0L4,4.5L0.3,0.8C0.2,0.7,0.1,0.7,0,0.8C0,0.8,0,0.9,0,1l3.8,3.8c0,0,0,0,0,0
		c0,0,0.1,0,0.1,0c0,0,0.1,0,0.1,0c0,0,0,0,0,0L8,1C8,0.9,8,0.8,8,0.8z"/>
	<path class="st0" d="M3.9,2.6c0.1,0.1,0.2,0.1,0.2,0l2.3-2.3c0.1-0.1,0.1-0.2,0-0.2C6.4,0,6.3,0,6.2,0L4,2.3L1.8,0
		C1.7,0,1.6,0,1.5,0c-0.1,0.1-0.1,0.2,0,0.2L3.9,2.6z"/>
</g>
</svg>
