<?xml version="1.0" encoding="utf-8"?>
<!-- Generator: Adobe Illustrator 24.0.1, SVG Export Plug-In . SVG Version: 6.00 Build 0)  -->
<svg version="1.1" id="Layer_1" xmlns="http://www.w3.org/2000/svg" xmlns:xlink="http://www.w3.org/1999/xlink" x="0px" y="0px"
	 viewBox="0 0 31.6 31.6" style="enable-background:new 0 0 31.6 31.6;" xml:space="preserve">
<style type="text/css">
	.st0{fill:none;stroke:#FFFFFF;stroke-width:0.75;stroke-miterlimit:10;}
	.st1{fill:#FFFFFF;}
</style>
<g>
	<g>
		<circle class="st0" cx="15.8" cy="15.8" r="15.4"/>
	</g>
	<path class="st1" d="M21.2,19.8v-5.7l0,0c0-1.9,0-3.8,0-5.7v0c0-0.1,0-0.2,0-0.2c0-0.3-0.2-0.5-0.5-0.5c0,0,0,0-0.1,0l0,0
		c-0.2,0-0.5,0.1-0.6,0.1c-0.7,0.1-1.3,0.3-2,0.4l-2.3,0.5c-0.7,0.1-1.5,0.3-2.2,0.4c-0.3,0.1-0.5,0.1-0.8,0.2l0,0
		c-0.3,0.1-0.5,0.3-0.5,0.5c0,0.1,0,0.2,0,0.4c0,0,0,0,0,0c0,3,0,5.9,0,8.9v0.1c0,0,0,0,0,0c0,0,0,0,0,0c0,0.4-0.3,0.6-0.6,0.7
		C11.3,19.9,11,20,10.7,20l0,0c-0.4,0.1-0.8,0.2-1.1,0.3l0,0c-0.7,0.3-1.2,0.9-1.2,1.7c0,0.1,0,0.2,0,0.3l0,0
		c0.1,0.9,0.9,1.5,1.8,1.5c0,0,0.1,0,0.1,0h0c0.4,0,0.7-0.1,1.1-0.2l0,0c0.6-0.2,1.2-0.6,1.4-1.2c0.1-0.4,0.2-0.7,0.2-1.1
		c0,0,0-0.1,0-0.1c0-2.6,0-5.2,0-7.8v-0.1c0,0,0,0,0,0c0-0.2,0.2-0.4,0.4-0.4c0,0,0,0,0,0l3.7-0.7c0.8-0.2,1.5-0.3,2.3-0.5
		c0,0,0,0,0,0l0,0c0,0,0,0,0,0c0.2,0,0.3-0.1,0.5-0.1h0c0,0,0,0,0,0c0.1,0,0.3,0.1,0.3,0.2c0,0,0,0,0,0l0,0c0,0,0,0,0,0
		c0,0.1,0,0.1,0,0.2c0,1.8,0,3.6,0,5.4c0,0,0,0,0,0c0,0.1,0,0.1,0,0.2v0c0,0.3-0.2,0.5-0.5,0.5c-0.4,0.1-0.8,0.2-1.1,0.2l0,0
		c-0.4,0.1-0.7,0.2-1,0.3l0,0c-0.6,0.3-1.1,0.9-1.1,1.7c0,1,0.8,1.9,1.9,1.9c0,0,0.1,0,0.1,0h0c0.4,0,0.7-0.1,1.1-0.2l0,0
		c0.6-0.2,1.1-0.6,1.4-1.1C21.1,20.7,21.2,20.3,21.2,19.8C21.2,19.8,21.2,19.8,21.2,19.8z"/>
</g>
</svg>
