<?xml version="1.0" encoding="utf-8"?>
<!-- Generator: Adobe Illustrator 24.2.1, SVG Export Plug-In . SVG Version: 6.00 Build 0)  -->
<svg version="1.1" id="Layer_1" xmlns="http://www.w3.org/2000/svg" xmlns:xlink="http://www.w3.org/1999/xlink" x="0px" y="0px"
	 viewBox="0 0 31.6 31.6" style="enable-background:new 0 0 31.6 31.6;" xml:space="preserve">
<style type="text/css">
	.st0{fill:none;stroke:#000000;stroke-width:0.75;stroke-miterlimit:10;}
</style>
<g>
	<circle class="st0" cx="15.8" cy="15.8" r="15.4"/>
	<g id="XMLID_151_">
		<path id="XMLID_152_" d="M15.8,8.3c-4.1,0-7.5,3.4-7.5,7.5s3.4,7.5,7.5,7.5s7.5-3.4,7.5-7.5S20,8.3,15.8,8.3z M19.3,19.2
			c-0.2,0.2-0.4,0.3-0.6,0.2c-1.8-1.1-4-1.3-6.6-0.7c-0.3,0.1-0.5-0.1-0.6-0.3c-0.1-0.3,0.1-0.5,0.3-0.6c2.9-0.6,5.3-0.4,7.3,0.8
			C19.3,18.6,19.4,18.9,19.3,19.2z M20.2,17.1c-0.2,0.3-0.5,0.4-0.8,0.2c-2-1.2-5.1-1.6-7.5-0.9c-0.3,0.1-0.6-0.1-0.7-0.4
			c-0.1-0.3,0.1-0.6,0.4-0.7c2.7-0.8,6.1-0.4,8.5,1C20.2,16.5,20.4,16.8,20.2,17.1z M20.2,15c-2.4-1.4-6.4-1.6-8.7-0.9
			c-0.4,0.1-0.8-0.1-0.9-0.5c-0.1-0.4,0.1-0.8,0.5-0.9c2.7-0.8,7.1-0.6,9.8,1c0.3,0.2,0.5,0.6,0.3,1S20.6,15.2,20.2,15z"/>
	</g>
</g>
</svg>
