<?xml version="1.0" encoding="utf-8"?>
<!-- Generator: Adobe Illustrator 24.0.1, SVG Export Plug-In . SVG Version: 6.00 Build 0)  -->
<svg version="1.1" id="Layer_1" xmlns="http://www.w3.org/2000/svg" xmlns:xlink="http://www.w3.org/1999/xlink" x="0px" y="0px"
	 viewBox="0 0 31.6 31.6" style="enable-background:new 0 0 31.6 31.6;" xml:space="preserve">
<style type="text/css">
	.st0{fill:#FFDE17;}
	.st1{fill:#010101;}
	.st2{fill:#FFFFFF;}
	.st3{fill:none;stroke:#FFFFFF;stroke-miterlimit:10;}
	.st4{fill:#F26522;}
	.st5{fill:none;stroke:#030303;stroke-miterlimit:10;}
	.st6{fill:#030303;}
	.st7{fill:none;stroke:#000000;stroke-width:0.75;stroke-miterlimit:10;}
	.st8{fill:#A7A9AC;}
	.st9{fill:none;stroke:#808285;stroke-miterlimit:10;}
	.st10{fill:none;stroke:#FFFFFF;stroke-width:0.75;stroke-miterlimit:10;}
	.st11{stroke:#000000;stroke-width:0.25;stroke-linecap:round;stroke-linejoin:round;stroke-miterlimit:10;}
	.st12{fill:none;stroke:#FFFFFF;stroke-linecap:round;stroke-miterlimit:10;}
	.st13{fill:none;stroke:#F26522;stroke-miterlimit:10;}
	.st14{fill:none;stroke:#E6E7E8;stroke-miterlimit:10;}
	.st15{clip-path:url(#SVGID_4_);}
	.st16{clip-path:url(#SVGID_10_);}
	.st17{clip-path:url(#SVGID_14_);fill:#F26522;}
	.st18{fill:#222223;}
</style>
<g>
	<ellipse transform="matrix(0.9207 -0.3904 0.3904 0.9207 -4.9183 7.4276)" class="st10" cx="15.8" cy="15.8" rx="15.4" ry="15.4"/>
	<g>
		<path class="st2" d="M11.7,19.9h1v-6.4c-0.4,0.1-0.7,0.3-1,0.6C11.7,14,11.7,19.9,11.7,19.9z M9.7,15.5v4.3l0.1,0h1v-4.4L9.7,15.5
			C9.8,15.5,9.7,15.5,9.7,15.5z M7.7,17.7c0,0.8,0.4,1.5,1,1.9v-3.7C8.1,16.2,7.7,16.9,7.7,17.7z M13.8,19.9h1v-6.1
			c-0.3-0.2-0.7-0.3-1-0.4V19.9z M21.9,15.5h-0.6c0-0.2,0-0.4,0-0.5c0-1.8-1.4-3.3-3.2-3.3c-0.9,0-1.8,0.4-2.4,1.1v7h6.1
			c1.2,0,2.1-1,2.1-2.2C24,16.5,23,15.5,21.9,15.5z"/>
	</g>
</g>
</svg>
